<svg t="1715747123423" class="icon" viewBox="0 0 1334 1024" version="1.1" xmlns="http://www.w3.org/2000/svg" p-id="7039" width="200" height="200"><path d="M41.927584 188.083481h1250.388398a41.927131 41.927131 0 0 0 41.791298-41.791298V41.791298A41.927131 41.927131 0 0 0 1292.315982 0H41.927584A41.927131 41.927131 0 0 0 0.136286 41.791298v104.500885a41.927131 41.927131 0 0 0 41.791298 41.791298z m0 417.958259h1250.388398a41.927131 41.927131 0 0 0 41.791298-41.791298v-104.500884a41.927131 41.927131 0 0 0-41.791298-41.791298H41.927584a41.927131 41.927131 0 0 0-41.791298 41.791298v104.500884a41.927131 41.927131 0 0 0 41.791298 41.791298z m0 417.95826h1250.388398a41.927131 41.927131 0 0 0 41.791298-41.791298v-104.500885a41.927131 41.927131 0 0 0-41.791298-41.791298H41.927584a41.927131 41.927131 0 0 0-41.791298 41.791298v104.500885a41.927131 41.927131 0 0 0 41.791298 41.791298z" fill="#ffffff" p-id="7040"></path></svg>