<svg width="1280" height="720" viewBox="0 0 1280 720" fill="none" xmlns="http://www.w3.org/2000/svg">
<path d="M362 720C362 919.927 199.927 1082 0 1082C-199.927 1082 -362 919.927 -362 720C-362 520.073 -199.927 358 0 358C199.927 358 362 520.073 362 720Z" fill="#8F66E6" fill-opacity="0.4"/>
<circle cy="720" r="286" fill="#8F66E6" fill-opacity="0.4"/>
<path d="M219 720C219 840.95 120.95 939 0 939C-120.95 939 -219 840.95 -219 720C-219 599.05 -120.95 501 0 501C120.95 501 219 599.05 219 720Z" fill="#8F66E6" fill-opacity="0.4"/>
<path d="M672.5 139C536.9 151.8 444.667 51 415.5 -1L1279.5 2.5V720.5H1183C884.2 682.5 934.5 531 997 460C1033.5 410.167 1099.5 290.1 1071.5 208.5C1036.5 106.5 842 123 672.5 139Z" fill="#8F66E6" fill-opacity="0.4"/>
</svg>
